<?xml version="1.0" encoding="utf-8"?>
<!-- Generator: Adobe Illustrator 26.5.1, SVG Export Plug-In . SVG Version: 6.00 Build 0)  -->
<svg version="1.1" id="Layer_1" xmlns="http://www.w3.org/2000/svg" xmlns:xlink="http://www.w3.org/1999/xlink" x="0px" y="0px"
	 viewBox="0 0 283.5 283.5" style="enable-background:new 0 0 283.5 283.5;" xml:space="preserve">
<style type="text/css">
	.st0{fill:#FFFFFF;}
</style>
<path id="Path_614" class="st0" d="M114.8,147.3c-1.7,1.7-4.5,3.9-9,3.9c-6.1,0-9.3-4.6-9.3-9.1c0-5.7,3.8-9.8,9.1-9.8
	c3.2,0,6.5,1.4,8.8,3.9l0.4,0.4l2.6-2.7l-0.4-0.4c-3-3-7.1-4.6-11.4-4.5c-8.2,0-14.4,5.6-14.4,13.1c0,7.1,6.1,12.5,14.1,12.5
	c6,0,9.5-2.5,11.9-4.6l0.4-0.4l-2.5-2.6L114.8,147.3z"/>
<path id="Path_615" class="st0" d="M148.6,141.4c1.3-1.2,2-2.8,2.1-4.5c0-1.8-0.6-3.5-1.8-4.7c-2-2-4-2.5-8.8-2.5h-13v24.2h4.8v-10
	h7.9l6.1,10h5.6l-6.6-10.5C146.2,143.1,147.6,142.4,148.6,141.4z M145.8,136.9c0,2.3-1.7,3.6-4.6,3.6h-9.3v-7.4h8.8
	C144.2,133.1,145.8,134.2,145.8,136.9L145.8,136.9z"/>
<path id="Path_616" class="st0" d="M170,129.6l-11.8,24.2h4.3l2.8-6.2h12.4l3,6.2h5.4l-11.6-24.2H170z M176.1,144.4h-9.4l4.6-10
	L176.1,144.4z"/>
<path id="Path_617" class="st0" d="M193.5,153.8h4.8v-10.1h9.4v-3.5h-9.4v-7h15.5v-3.6h-20.3L193.5,153.8z"/>
<path id="Path_618" class="st0" d="M221.6,129.6v3.6h8.3v20.6h4.8v-20.6h8.3v-3.6H221.6z"/>
<g id="Group_1536" transform="translate(6507.72 1908.458) rotate(180)">
	<path id="Path_621" class="st0" d="M6469.6,1769.4l-17.7,6.5l0,3.6l17.7-6.5L6469.6,1769.4z"/>
	<path id="Path_622" class="st0" d="M6469.6,1762.1l-17.7,6.5l-17.7,6.5l0,3.6l17.7-6.5l17.7-6.5L6469.6,1762.1z"/>
	<path id="Path_623" class="st0" d="M6469.6,1758.5l0-3.6l-17.7,6.5l-17.7,6.5l0,3.6l17.7-6.5L6469.6,1758.5z"/>
	<path id="Path_624" class="st0" d="M6451.8,1754l-17.7,6.5l0,3.6l17.7-6.5L6451.8,1754z"/>
</g>
</svg>
